<?xml version="1.0" encoding="utf-8"?>
<!-- Generator: Adobe Illustrator 27.4.1, SVG Export Plug-In . SVG Version: 6.00 Build 0)  -->
<svg version="1.1" id="Layer_1" xmlns="http://www.w3.org/2000/svg" xmlns:xlink="http://www.w3.org/1999/xlink" x="0px" y="0px"
	 viewBox="0 0 200 200" style="enable-background:new 0 0 200 200;" xml:space="preserve">
<style type="text/css">
	.st0{fill:#F2F2F3;}
	.st1{fill:#C6C7C9;}
	.st2{fill:#EDEDED;}
	.st3{fill:#BAA899;}
	.st4{fill:#998776;}
	.st5{fill:#746456;}
	.st6{fill:none;}
	.st7{fill:none;stroke:#8D8D8D;stroke-width:0.1237;stroke-miterlimit:10;}
	.st8{clip-path:url(#SVGID_00000176044355735928348290000006875540537411247522_);}
	.st9{fill:#FFFFFF;}
	.st10{fill:#F5A71C;}
	.st11{fill:#A4CD39;}
	.st12{fill:#119FDA;}
	.st13{fill:#9A6F2A;}
	.st14{fill:#66863A;}
	.st15{fill:#04678D;}
	.st16{fill:#ED2B37;}
	.st17{fill:#BD202C;}
	.st18{fill:#F5927C;}
	.st19{fill:url(#SVGID_00000109022406590300095100000010329105616626806659_);}
	.st20{opacity:0.23;fill:#DBDBDA;enable-background:new    ;}
	.st21{fill:#8D8D8D;}
	.st22{clip-path:url(#SVGID_00000133489962487111040800000005286677133622929854_);}
	.st23{fill:none;stroke:#8D8D8D;stroke-width:0.1217;stroke-miterlimit:10;}
	.st24{clip-path:url(#SVGID_00000163044050430671727790000005170661679083613091_);}
	.st25{fill:url(#SVGID_00000111880847660673764000000003092845583707535039_);}
</style>
<g>
	<g>
		<path class="st0" d="M67.8,60.5c-34.6,0-62.6-9.6-62.6-21.4s28-21.4,62.6-21.4s62.6,9.6,62.6,21.4C130.4,51,102.4,60.5,67.8,60.5z
			"/>
		<path class="st1" d="M130.4,153.5V38.7c0,12.6-28,21.8-62.6,21.8S5.2,50.9,5.2,38.7v114.8c0,15.1,28,27.3,62.6,27.3
			C102.4,180.9,130.4,168.6,130.4,153.5z"/>
		<g>
			<path class="st2" d="M19.2,52.6c0,0,17.1,8.7,56.3,7.8l118.2,0.2l0.2,121H73.5h-0.1c-1.6,0.1-36.4,1.7-58.1-12.4
				c0,0-9.8-6.7-10-12.9L5.2,39C5.2,41.1,9,46.4,19.2,52.6z"/>
		</g>
		<g>
			<g>
				<g>
					<path class="st3" d="M17.9,38.8c0-9.2,22.4-16.6,50-16.5s49.8,7.6,49.8,16.8s-22.4,16.6-50,16.5C40.1,55.6,17.8,48.1,17.9,38.8
						z"/>
				</g>
			</g>
		</g>
		<g>
			<g>
				<g>
					<path class="st4" d="M20.5,38.9c0-8.4,21.3-15.2,47.4-15.1s47.3,7,47.2,15.4c0,8.4-21.3,15.2-47.4,15.1
						C41.6,54.2,20.4,47.3,20.5,38.9z"/>
				</g>
			</g>
			<g>
				<g>
					<path class="st5" d="M21.6,42.2c8.6,3.2,21.3,5.2,35.4,5.3c26.1,0.1,47.3-6.7,47.4-15.1c0-1.1-0.4-2.2-1.1-3.3
						c7.4,2.7,11.8,6.3,11.8,10.1c0,8.4-21.2,15.2-47.4,15.1C45.1,54.2,26.2,49,21.6,42.2z"/>
				</g>
			</g>
		</g>
		<g>
			<path class="st6" d="M19.2,52.6c0,0,17.1,8.7,56.3,7.8l118.2,0.2l0.2,121H73.5h-0.1c-1.6,0.1-36.4,1.7-58.1-12.4
				c0,0-9.8-6.7-10-12.9L5.2,39C5.2,41.1,9,46.4,19.2,52.6z"/>
		</g>
	</g>
	<g>
		<g>
			<g>
				<g>
					<path class="st7" d="M116.5,72.9c-2.5-0.1-4.4-0.1-5.2-0.1c-0.2,0-0.3,0-0.5,0l0,0l0,0c0,0,0,0-0.1,0c0,0,0,0-0.1,0
						c0,0-0.1,0-0.2,0c-1.9,0.1-3.6,0.9-4.8,2.1c-0.2,0.2-0.4,0.4-0.6,0.6c-0.6,0.7-1.1,1.4-1.3,2c-0.5,1-0.8,2-1,2.8l0,0l-1.6,6.1
						c-1.5-0.9-3.3-1.4-5.2-1.3l0,0l-30.1,1.3l0,0c-2,0.1-3.6,0.9-4.6,1.7c-1.1,0.9-1.8,2-2.1,2.6C58.5,91.8,58.2,93,58,94l0,0
						l-11.1,49.6l0,0c-1.4,6.2,4.3,11.8,10.5,10.1l0,0L76,149c0.5,1.6,1.1,3.7,1.9,6.4l0,0c0.8,2.6,1.7,5,3,6.9
						c1.1,1.6,4.3,4.9,9,3.8l0,0c0.1,0,0.2,0,0.3-0.1c0.1,0,0.2,0,0.3-0.1l0,0c0.4-0.1,0.7-0.2,1-0.4l34.1-12.6
						c0.2,0,0.4-0.1,0.5-0.2l1.4,4.9c0.6,2,2.1,3.7,4.1,4.5l0,0l22.2,9.2l0,0l4.3,1.8V173l0,0v0.1c2.3,1,4.9,0.6,6.8-0.7l15.3-8.6
						l0,0c0.2-0.1,0.4-0.2,0.5-0.3c3.5-2.4,5.7-7.1,4-11.9l0,0l-19.1-54.4"/>
				</g>
			</g>
			<g>
				<g>
					<g>
						<defs>
							<polygon id="SVGID_1_" points="41.7,54.5 183.6,49.9 185,178 48,176 							"/>
						</defs>
						<clipPath id="SVGID_00000170256008737465179420000001809689262818998434_">
							<use xlink:href="#SVGID_1_"  style="overflow:visible;"/>
						</clipPath>
						<g style="clip-path:url(#SVGID_00000170256008737465179420000001809689262818998434_);">
							<path class="st9" d="M103,107.3L103,107.3L103,107.3L103,107.3z M84.5,153.7L84.5,153.7L84.5,153.7L84.5,153.7L84.5,153.7
								L84.5,153.7z M84.4,153.7L84.4,153.7l-0.3,0.1l0,0L84.4,153.7z M130.5,143.9L130.5,143.9L130.5,143.9L130.5,143.9
								L130.5,143.9z M177.8,154.3L177.8,154.3L177.8,154.3L177.8,154.3z M96.1,92.4L96.1,92.4L96.1,92.4L96.1,92.4z M53.6,145.4
								L53.6,145.4L53.6,145.4L53.6,145.4z"/>
							<path class="st10" d="M80.6,140.6L67.3,95.9c-1.2-3.9-2.3-2.1-2.6-0.2l-11.1,49.6c-0.3,1,0.7,2,1.8,1.7L80.6,140.6z"/>
							<path class="st11" d="M65.9,93.6c0.4,0,0.9,0.6,1.4,2.3L80,138.4l0.9,3.1c0,0,0.1,0,3.6,12c3.7,12.3,6,1.3,6,1.3l12.8-46.3
								l-5.1-14.7c-0.3-0.9-1.2-1.6-2.2-1.5L65.9,93.6z"/>
							<path class="st12" d="M112.7,83c-1.4-4.7-2.6-2.5-3.1-0.6l-19,72.4c0,0-1,4.2-2.5,4.6l43-15.8L112.7,83z"/>
							<path class="st13" d="M67.3,95.9l8.1,46l5.2-1.3L67.3,95.9z"/>
							<path class="st14" d="M100.4,100l2.6,7.6l-12.6,47.6L100.4,100z"/>
							<path class="st15" d="M112.7,83l11,63.3l7-2.6L112.7,83z"/>
							<path class="st16" d="M132,80.7c-12.2-0.3-21-0.5-21-0.5c0.4,0.1,1,0.8,1.6,2.9l0.1,0.3l21.6,72.6l26.3,11l15.8-9
								c1.2-0.8,1.8-2.3,1.3-3.6l-21.4-61.7"/>
							<path class="st17" d="M160.6,166.8l-2.8-13.5c-0.3-1.4-1.6-2.2-3-2l-1.3,0.3L160.6,166.8z"/>
							<path class="st18" d="M148.1,148.1l-13.8,7.8l26.3,11l-8.3-17.5C151.6,147.8,149.6,147.2,148.1,148.1z"/>
							
								<linearGradient id="SVGID_00000027581203518904816370000008336429749098077630_" gradientUnits="userSpaceOnUse" x1="129.592" y1="-79.6152" x2="129.592" y2="-149.6702" gradientTransform="matrix(0.9995 -3.219057e-02 -3.219057e-02 -0.9995 -18.6727 3.3429)">
								<stop  offset="0" style="stop-color:#FFFFFF"/>
								<stop  offset="1" style="stop-color:#FFFFFF;stop-opacity:0"/>
							</linearGradient>
							<path style="fill:url(#SVGID_00000027581203518904816370000008336429749098077630_);" d="M51.2,123.6l115.2-24
								c5.2,14.8,15.6,44.9,16.4,47.1c1,2.6,2.2,9,1.6,11.4c-0.5,1.9-3.2,4.1-4.5,5c-5.2,3.5-16.3,10.6-19.8,10.8
								c-4.3,0.3-29.4-12.5-31.2-13.3c-1.4-0.7-2.6-5.8-2.9-7.9c-10.6,4.4-33.8,13.2-38.9,13.4c-5.1,0.2-8-6.1-8.8-9.2l-2.6-8.1
								c-3.4,0.9-11.1,3-14.8,3.9c-4.6,1-7.9,2.2-11.2-0.5c-2.6-2.2-3-8-2.6-10.1L51.2,123.6z"/>
						</g>
					</g>
				</g>
			</g>
		</g>
		<g>
			<path class="st20" d="M165.3,97.1l-23.1,4.9l0,0h-0.1c-4,0.7-8.1-1.1-10.2-4.5l0,0c-2.4-3.9-10-16.4-15-24.5L165.3,97.1z"/>
			<path class="st16" d="M156.3,92.9l-14.3,2c-1.1,0.2-2.3-0.3-2.9-1.3c-1.5-2.4-4.1-7.8-7.3-13"/>
		</g>
		<path class="st6" d="M165.5,97.3"/>
		<path class="st6" d="M116.5,72.9"/>
		<g>
			<path class="st21" d="M116.8,73.2l48.3,24l-22.9,4.7h-0.1H142c-0.6,0.1-1.2,0.2-1.8,0.2c-3.4,0-6.5-1.7-8.4-4.6v-0.1
				c-1-1.5-2.7-4.4-4.8-7.8C123.9,84.5,119.9,78.1,116.8,73.2 M116.5,72.9c5.1,8.1,12.9,20.7,15.3,24.6l0,0c1.9,2.9,5.1,4.6,8.5,4.6
				c0.6,0,1.2-0.1,1.8-0.2h0.1l23.3-4.7L116.5,72.9L116.5,72.9z"/>
		</g>
	</g>
	<g>
		<g>
			<defs>
				<path id="SVGID_00000094616540431033856970000018390330483940688546_" d="M19.2,52.6c0,0,17.1,8.7,56.3,7.8l118.2,0.2l0.2,121
					H73.5h-0.1c-1.6,0.1-36.4,1.7-58.1-12.4c0,0-9.8-6.7-10-12.9L5.2,39C5.2,41.1,9,46.4,19.2,52.6z"/>
			</defs>
			<clipPath id="SVGID_00000006681077099702842070000015314377263808285326_">
				<use xlink:href="#SVGID_00000094616540431033856970000018390330483940688546_"  style="overflow:visible;"/>
			</clipPath>
			<g style="clip-path:url(#SVGID_00000006681077099702842070000015314377263808285326_);">
				<g>
					<g>
						<g>
							<path class="st23" d="M-31.6,55.1c-2.4,0-4.3,0-5.1,0c-0.2,0-0.3,0-0.5,0l0,0l0,0c0,0,0,0-0.1,0c0,0,0,0-0.1,0
								c0,0-0.1,0-0.2,0c-1.8,0.1-3.5,0.9-4.7,2.2c-0.2,0.2-0.4,0.4-0.6,0.6c-0.6,0.7-1,1.5-1.3,2c-0.5,1-0.8,2-0.9,2.8l0,0l-1.3,6
								c-1.5-0.9-3.2-1.4-5.2-1.2l0,0L-81,69.3l0,0c-2,0.1-3.5,1-4.5,1.8c-1.1,0.9-1.7,2-2,2.6c-0.6,1.2-0.9,2.3-1,3.3l0,0
								l-9.9,49.3l0,0c-1.3,6.2,4.4,11.6,10.5,9.8l0,0l18.1-5c0.5,1.6,1.2,3.7,2,6.3l0,0c0.8,2.6,1.8,5,3,6.8
								c1.1,1.6,4.2,4.8,8.9,3.6l0,0c0.1,0,0.2-0.1,0.3-0.1s0.2,0,0.2-0.1l0,0c0.4-0.1,0.7-0.2,1-0.4l33.1-13.1
								c0.2,0,0.3-0.1,0.5-0.2l1.5,4.8c0.6,2,2.1,3.6,4.1,4.4l0,0l21.8,8.7l0,0l4.2,1.7v-0.1l0,0v0.1c2.2,0.9,4.8,0.5,6.7-0.9
								l14.8-8.8l0,0c0.2-0.1,0.4-0.2,0.5-0.3c3.4-2.5,5.4-7.2,3.7-11.8l0,0L16.7,78.3"/>
						</g>
					</g>
					<g>
						<g>
							<g>
								<defs>
									<polygon id="SVGID_00000015346337011300688120000011073001631713760674_" points="-105.1,38.2 33.6,31 40.7,171.4 
										-98,178.7 									"/>
								</defs>
								<clipPath id="SVGID_00000017512893926956607200000012753641768670647701_">
									<use xlink:href="#SVGID_00000015346337011300688120000011073001631713760674_"  style="overflow:visible;"/>
								</clipPath>
								<g style="clip-path:url(#SVGID_00000017512893926956607200000012753641768670647701_);">
									<path class="st9" d="M-44.2,89.4L-44.2,89.4L-44.2,89.4L-44.2,89.4z M-61.4,135.7L-61.4,135.7L-61.4,135.7L-61.4,135.7
										L-61.4,135.7L-61.4,135.7z M-61.5,135.7L-61.5,135.7l-0.3,0.1l0,0L-61.5,135.7z M-16.6,125.1L-16.6,125.1L-16.6,125.1
										L-16.6,125.1L-16.6,125.1z M29.8,134.6L29.8,134.6L29.8,134.6L29.8,134.6z M-51.2,74.8L-51.2,74.8L-51.2,74.8L-51.2,74.8z
										 M-91.8,128.1L-91.8,128.1L-91.8,128.1L-91.8,128.1z"/>
									<path class="st10" d="M-65.5,122.8l-13.8-44c-1.2-3.9-2.3-2-2.5-0.2l-10,49.3c-0.2,1,0.8,2,1.8,1.7L-65.5,122.8z"/>
									<path class="st11" d="M-80.8,76.6c0.4,0,0.9,0.6,1.4,2.3l13.2,41.9l1,3c0,0,0.1,0,3.8,11.9c3.8,12.1,5.9,1.1,5.9,1.1
										l11.7-46.1L-49,76.2c-0.3-0.9-1.2-1.5-2.2-1.4L-80.8,76.6z"/>
									<path class="st12" d="M-35.1,65.2c-1.5-4.6-2.6-2.4-3-0.6l-17.3,72.2c0,0-0.9,4.2-2.4,4.6l41.7-16.5L-35.1,65.2z"/>
									<path class="st13" d="M-79.3,78.9l8.7,45.4l5.1-1.4L-79.3,78.9z"/>
									<path class="st14" d="M-46.9,82.3l2.7,7.5l-11.4,47.4L-46.9,82.3z"/>
									<path class="st15" d="M-35.1,65.2l11.9,62.5l6.8-2.7L-35.1,65.2z"/>
									<path class="st16" d="M-16.3,62.5c-11.9,0-20.5-0.1-20.5-0.1c0.4,0,1,0.8,1.7,2.8l0.1,0.3l22.4,71.5l25.9,10.4l15.3-9.2
										c1.2-0.9,1.7-2.4,1.2-3.6L7.6,74"/>
									<path class="st17" d="M13.3,147.3l-3-13.3c-0.3-1.4-1.6-2.2-3-1.9L6,132.4L13.3,147.3z"/>
									<path class="st18" d="M0.7,129l-13.4,8l25.9,10.4l-8.5-17.2C4.1,128.6,2.1,128.1,0.7,129z"/>
									
										<linearGradient id="SVGID_00000150815778101611417510000015410313263420964237_" gradientUnits="userSpaceOnUse" x1="-16.9848" y1="-56.9762" x2="-16.9848" y2="-126.3931" gradientTransform="matrix(0.9987 -5.130010e-02 -5.130010e-02 -0.9987 -20.5893 3.1494)">
										<stop  offset="0" style="stop-color:#FFFFFF"/>
										<stop  offset="1" style="stop-color:#FFFFFF;stop-opacity:0"/>
									</linearGradient>
									<path style="fill:url(#SVGID_00000150815778101611417510000015410313263420964237_);" d="M-94.5,106.5l112.1-26
										c5.3,14.5,16.1,44.2,16.9,46.3c1,2.6,2.4,8.9,1.8,11.2c-0.5,1.9-3,4.1-4.3,5c-5,3.6-15.8,10.8-19.1,11.1
										c-4.2,0.4-29-11.8-30.7-12.6c-1.4-0.6-2.6-5.7-3-7.8c-10.3,4.5-32.8,13.8-37.8,14s-8-5.8-8.8-8.9l-2.7-8
										c-3.3,1-10.8,3.2-14.4,4.1c-4.5,1.1-7.7,2.3-11-0.3c-2.6-2.1-3.1-7.9-2.8-9.9L-94.5,106.5z"/>
								</g>
							</g>
						</g>
					</g>
				</g>
				<g>
					<path class="st20" d="M16.5,78.2L-6,83.5l0,0h-0.1c-3.9,0.8-7.9-0.9-10.1-4.3l0,0c-2.5-3.9-10.1-16.1-15.2-24L16.5,78.2z"/>
					<path class="st16" d="M7.7,74.1l-14,2.3c-1.1,0.3-2.2-0.2-2.8-1.2c-1.5-2.4-4.1-7.7-7.4-12.8"/>
				</g>
				<path class="st6" d="M16.7,78.4"/>
				<path class="st6" d="M-31.6,55.1"/>
				<g>
					<path class="st21" d="M-31.3,55.4l47.7,22.9l-22.3,5.1H-6h-0.1c-0.6,0.1-1.3,0.2-1.9,0.2c-3.3,0-6.3-1.6-8.1-4.4v-0.1
						c-1-1.5-2.7-4.3-4.9-7.6C-24.2,66.5-28.2,60.2-31.3,55.4 M-31.6,55.1c5.1,7.9,13,20.3,15.5,24.1l0,0c1.8,2.8,5,4.4,8.2,4.4
						c0.6,0,1.3-0.1,1.9-0.2h0.1l22.7-5.1L-31.6,55.1L-31.6,55.1z"/>
				</g>
			</g>
		</g>
	</g>
</g>
</svg>
